<svg width="56" height="64" viewBox="0 0 56 64" fill="none" xmlns="http://www.w3.org/2000/svg">
<path d="M20.5 55H1V1H55V55H36H35.5858L35.2929 55.2929L28.0232 62.5626L21.2295 55.3161L20.9332 55H20.5Z" fill="white" stroke="#00A55A" stroke-width="2"/>
<path d="M42.617 16.4305L38.9021 13.0454H20.6384L16.8556 17.5304L37.4969 17.549V37.4964L16.8556 37.5113L20.6384 42H38.9021L42.617 38.5779V16.4305Z" fill="#272A68"/>
<path d="M35.0405 19.9453H14.9891L12 23.4896L35.0405 23.5045V19.9453Z" fill="#00A55A"/>
<path d="M35.0405 25.7155H14.9891L12 29.2598L35.0405 29.2746V25.7155Z" fill="#00A55A"/>
<path d="M35.0405 31.5597H14.9891L12 35.104L35.0405 35.1189V31.5597Z" fill="#00A55A"/>
</svg>
